<svg width="20" height="20" viewBox="0 0 20 20" fill="none" xmlns="http://www.w3.org/2000/svg">
<path fill-rule="evenodd" clip-rule="evenodd" d="M9.16862 6.66634C9.16862 6.20634 9.54195 5.83301 10.002 5.83301C10.462 5.83301 10.8353 6.20634 10.8353 6.66634C10.8353 7.12634 10.462 7.49967 10.002 7.49967C9.54195 7.49967 9.16862 7.12634 9.16862 6.66634ZM9.16862 9.16634C9.16862 8.70634 9.54195 8.33301 10.002 8.33301C10.462 8.33301 10.8353 8.70634 10.8353 9.16634V13.333C10.8353 13.793 10.462 14.1663 10.002 14.1663C9.54195 14.1663 9.16862 13.793 9.16862 13.333V9.16634ZM10.0013 16.666C6.32547 16.666 3.33464 13.6752 3.33464 9.99935C3.33464 6.32352 6.32547 3.33268 10.0013 3.33268C13.6771 3.33268 16.668 6.32352 16.668 9.99935C16.668 13.6752 13.6771 16.666 10.0013 16.666ZM10.0013 1.66602C5.3988 1.66602 1.66797 5.39685 1.66797 9.99935C1.66797 14.6018 5.3988 18.3327 10.0013 18.3327C14.603 18.3327 18.3346 14.6018 18.3346 9.99935C18.3346 5.39685 14.603 1.66602 10.0013 1.66602Z" fill="#9C9C9C"/>
</svg>
