<svg width="20" height="20" viewBox="0 0 20 20" fill="none" xmlns="http://www.w3.org/2000/svg">
<path d="M12.7397 4.93042e-07C11.4676 -1.83033e-05 10.4422 -3.34548e-05 9.63568 0.108395C8.79838 0.220968 8.09339 0.461799 7.53347 1.02172C7.04517 1.51003 6.79844 2.1101 6.66892 2.81521C6.54307 3.50038 6.51899 4.33888 6.51339 5.34495C6.51125 5.73026 6.82186 6.04436 7.20716 6.0465C7.59247 6.04865 7.90656 5.73803 7.9087 5.35272C7.91437 4.33551 7.94078 3.61451 8.0413 3.0673C8.13815 2.54003 8.29366 2.23485 8.52012 2.00838C8.77758 1.75093 9.13903 1.58307 9.82161 1.4913C10.5243 1.39683 11.4555 1.39535 12.7908 1.39535H13.721C15.0562 1.39535 15.9875 1.39683 16.6902 1.4913C17.3727 1.58307 17.7342 1.75093 17.9916 2.00838C18.2491 2.26584 18.4169 2.6273 18.5087 3.30988C18.6032 4.01253 18.6047 4.9438 18.6047 6.27907V13.7209C18.6047 15.0562 18.6032 15.9875 18.5087 16.6901C18.4169 17.3727 18.2491 17.7342 17.9916 17.9916C17.7342 18.2491 17.3727 18.4169 16.6902 18.5087C15.9875 18.6032 15.0562 18.6047 13.721 18.6047H12.7908C11.4555 18.6047 10.5243 18.6032 9.82161 18.5087C9.13903 18.4169 8.77758 18.2491 8.52012 17.9916C8.29366 17.7651 8.13815 17.46 8.0413 16.9327C7.94078 16.3855 7.91437 15.6645 7.9087 14.6473C7.90656 14.262 7.59247 13.9514 7.20716 13.9535C6.82186 13.9556 6.51125 14.2697 6.51339 14.655C6.51899 15.6611 6.54307 16.4996 6.66892 17.1848C6.79844 17.8899 7.04517 18.49 7.53347 18.9783C8.09339 19.5382 8.79838 19.779 9.63568 19.8916C10.4422 20 11.4676 20 12.7397 20H13.772C15.0442 20 16.0696 20 16.8761 19.8916C17.7134 19.779 18.4184 19.5382 18.9783 18.9783C19.5382 18.4184 19.779 17.7134 19.8916 16.876C20 16.0696 20 15.0441 20 13.772V6.22803C20 4.95585 20 3.93044 19.8916 3.12395C19.779 2.28664 19.5382 1.58164 18.9783 1.02172C18.4184 0.461799 17.7134 0.220968 16.8761 0.108395C16.0696 -3.34548e-05 15.0442 -1.83033e-05 13.772 4.93042e-07H12.7397Z" fill="#FF4242"/>
<path d="M12.7906 9.30233C13.1759 9.30233 13.4882 9.61469 13.4882 10C13.4882 10.3853 13.1759 10.6977 12.7906 10.6977H2.58364L4.40748 12.261C4.70003 12.5117 4.73391 12.9522 4.48316 13.2447C4.2324 13.5373 3.79196 13.5712 3.49941 13.3204L0.243632 10.5297C0.0889959 10.3972 0 10.2037 0 10C0 9.79633 0.0889959 9.60283 0.243631 9.47029L3.49941 6.67959C3.79196 6.42883 4.2324 6.46271 4.48316 6.75526C4.73391 7.04782 4.70003 7.48826 4.40748 7.73902L2.58364 9.30233H12.7906Z" fill="#FF4242"/>
</svg>
